<svg version="1" xmlns="http://www.w3.org/2000/svg" width="933.333" height="933.333" viewBox="0 0 700.000000 700.000000"><path d="M271 118.9c-29.6 6.6-54.3 26.4-67.5 54.3-10.8 22.6-11.7 51.8-2.4 75.8 6 15.8 18.1 31.8 31.9 42.2 8.3 6.4 24.2 14.1 34.5 16.8 12.1 3.2 30.4 3.8 42.5 1.2 18.9-3.9 34.7-12.1 48.4-25.2 13.7-13 22.5-27.9 27.3-45.7 2.3-8.6 2.6-11.7 2.6-24.8 0-12-.4-16.5-2.1-22.7-4.9-18.1-13.3-32.9-25.8-45.3-12-12-25.8-20.2-42.1-25.1-12.1-3.6-34.6-4.3-47.3-1.5zm42.1 30.8c16.5 5.4 31.4 18.4 38.9 33.7 5.9 12.1 7.3 18.8 6.8 33.1-.7 19.1-6.2 31.8-19.3 45-8.3 8.2-16.9 13.5-28 17.2-6.6 2.1-9.9 2.6-19 2.6-13.5 0-18.4-1.1-30.4-6.9-16.6-8.1-29.7-23.3-35.1-40.9-5.8-19.1-2.4-41.5 9-58 7.2-10.4 20.5-20.9 32-25.1 14.1-5.1 31.2-5.4 45.1-.7zM187.9 351.6c-37.1 6.7-66.4 35.2-74 71.9-1.7 8-1.9 14.1-1.9 54.5 0 51.9-.2 50.6 8 54.8l4.5 2.2 84.5-.2 84.5-.3 3.3-2.3c8.7-6.3 8.2-19.1-1-24.7-3.2-1.9-5.3-2-79-2.3l-75.8-.3v-34.2c0-39.2.6-43.3 7.1-56.7 7.7-15.4 22.8-27.8 39.9-32.7 6.1-1.7 12.5-1.8 104.5-1.8h98l8.2 2.8c10.1 3.4 21.7 11 27.8 18.1 5.4 6.4 8.9 8 15.2 7.3 3.9-.4 5.4-1.2 8.5-4.6 3.2-3.4 3.8-4.7 3.8-8.5 0-6.8-1.4-9.4-10.4-18.2-13.1-13-30.1-21.7-48.1-24.9-12.3-2.1-195.7-2.1-207.6.1zM463.9 430.3c-1.9 1.2-4.2 3.8-5.2 5.7-.9 1.9-8.3 32.1-16.3 67-11.2 48.6-14.5 64.5-14.1 68 .4 3.6 1.3 5.2 4.6 8.2 3.5 3.3 4.6 3.8 8.8 3.8 5.3 0 10.2-2.4 12.8-6.3 1.7-2.7 31.5-130.4 31.5-135.2 0-10.3-13.4-17.1-22.1-11.2z"/><path d="M388.3 448.4c-3.3 1.5-51.3 44.3-55.1 49.1-2.8 3.5-3 11.8-.4 15.6 3.4 5.1 52.9 48.6 56.7 49.9 12 4 22.6-8.7 17-20.3-.9-1.8-10.1-10.8-20.5-20.1-18.1-16.1-19-17.1-17.3-18.7 1-.9 9.5-8.5 18.8-16.9 9.4-8.4 17.8-16.4 18.7-17.9 3.8-5.6 1.4-15.7-4.6-19.6-3.5-2.3-9.5-2.8-13.3-1.1zM514 448.8c-7.2 3.6-10.4 13.9-6.2 20.4.9 1.5 10 10.2 20.2 19.3 10.2 9.2 18.5 16.8 18.5 17 0 .2-8.5 8-19 17.4-10.4 9.4-19.5 18.2-20.3 19.7-.9 1.8-1.3 4.6-1 8.1.6 6.4 4 10.7 10 12.5 7.3 2.2 9.6.7 37-24.1 13.9-12.6 26.2-23.8 27.3-25.1 2.5-2.8 2.9-13.6.5-16.5-4-4.9-52.7-47.9-55.6-49.1-4.4-1.8-7.2-1.8-11.4.4z"/></svg>